<svg xmlns="http://www.w3.org/2000/svg" width="1280" height="800" viewBox="0 0 1280 800" fill="none">
  <defs>
    <linearGradient id="bg" x1="90" y1="40" x2="1180" y2="760" gradientUnits="userSpaceOnUse">
      <stop stop-color="#F8EFE4"/>
      <stop offset="1" stop-color="#EEDFD0"/>
    </linearGradient>
    <linearGradient id="hero" x1="0" y1="0" x2="1" y2="1">
      <stop stop-color="#FFFDF9"/>
      <stop offset="1" stop-color="#F6EFE6"/>
    </linearGradient>
    <filter id="softShadow" x="70" y="90" width="1140" height="620" filterUnits="userSpaceOnUse" color-interpolation-filters="sRGB">
      <feDropShadow dx="0" dy="22" stdDeviation="22" flood-color="#B7987D" flood-opacity="0.25"/>
    </filter>
  </defs>

  <rect width="1280" height="800" fill="url(#bg)"/>
  <circle cx="1100" cy="130" r="170" fill="#E3C8AE" fill-opacity="0.34"/>
  <circle cx="150" cy="680" r="230" fill="#D9BBA0" fill-opacity="0.22"/>

  <g filter="url(#softShadow)">
    <rect x="120" y="140" width="1040" height="520" rx="30" fill="url(#hero)"/>
  </g>

  <rect x="176" y="198" width="420" height="72" rx="18" fill="#EEDFD0"/>
  <rect x="176" y="292" width="360" height="40" rx="12" fill="#F4E9DC"/>
  <rect x="176" y="346" width="300" height="40" rx="12" fill="#F4E9DC"/>
  <rect x="176" y="430" width="220" height="56" rx="16" fill="#C89C73"/>

  <rect x="740" y="214" width="160" height="236" rx="24" fill="#F4E8DA"/>
  <rect x="892" y="248" width="160" height="236" rx="24" fill="#EAD8C4"/>
  <rect x="820" y="470" width="170" height="118" rx="20" fill="#DDBE9F"/>

  <rect x="818" y="330" width="112" height="18" rx="9" fill="#D1AD88"/>
  <rect x="968" y="364" width="112" height="18" rx="9" fill="#CBA47D"/>
</svg>
